{"asset":{"version":"2.0","generator":"THREE.GLTFExporter"},"scenes":[{"nodes":[0],"name":"AuxScene"}],"scene":0,"nodes":[{"mesh":0}],"bufferViews":[{"buffer":0,"byteOffset":0,"byteLength":9432,"target":34962,"byteStride":12},{"buffer":0,"byteOffset":9432,"byteLength":9432,"target":34962,"byteStride":12}],"buffers":[{"byteLength":18864,"uri":"data:application/octet-stream;base64,"}],"accessors":[{"bufferView":0,"componentType":5126,"count":786,"max":[100.61190795898438,6.595970153808594,100.61190795898438],"min":[-100.68809509277344,0.19596900045871735,-100.68809509277344],"type":"VEC3"},{"bufferView":1,"componentType":5126,"count":786,"max":[0.3712788224220276,1,0.19901129603385925],"min":[-0.9320438504219055,0.33111482858657837,-0.13216176629066467],"type":"VEC3"}],"materials":[{"pbrMetallicRoughness":{"baseColorFactor":[0.5019607843137255,0.5019607843137255,0.5019607843137255,1],"metallicFactor":0,"roughnessFactor":1}}],"meshes":[{"primitives":[{"mode":4,"attributes":{"POSITION":0,"NORMAL":1},"material":0}]}]}